<?xml version="1.0" standalone="no"?>
<!DOCTYPE svg PUBLIC "-//W3C//DTD SVG 20010904//EN"
 "http://www.w3.org/TR/2001/REC-SVG-20010904/DTD/svg10.dtd">
<svg version="1.0" xmlns="http://www.w3.org/2000/svg"
 width="1648.000000pt" height="262.000000pt" viewBox="0 0 1648.000000 262.000000"
 preserveAspectRatio="xMidYMid meet">

<g transform="translate(0.000000,262.000000) scale(0.100000,-0.100000)"
fill="#000000" stroke="none">
<path d="M11910 1535 l0 -985 95 0 95 0 0 985 0 985 -95 0 -95 0 0 -985z"/>
<path d="M12649 2497 c-75 -49 -86 -142 -25 -203 63 -63 163 -51 213 25 77
116 -71 256 -188 178z"/>
<path d="M7440 2401 c-244 -50 -445 -181 -592 -386 -70 -98 -126 -242 -149
-379 -17 -106 -7 -309 20 -411 121 -456 567 -741 1070 -685 228 25 429 119
580 272 140 141 224 305 256 503 52 318 -50 638 -271 844 -103 97 -210 160
-369 219 -116 43 -390 55 -545 23z m443 -180 c255 -66 465 -274 534 -531 25
-91 25 -329 0 -420 -56 -211 -203 -389 -392 -479 -109 -53 -190 -72 -325 -78
-157 -7 -278 18 -410 83 -128 64 -255 189 -318 311 -125 243 -118 548 19 779
74 126 243 265 384 315 145 51 353 59 508 20z"/>
<path d="M110 1480 l0 -930 660 0 660 0 0 85 0 85 -560 0 -560 0 0 345 0 345
480 0 480 0 0 85 0 85 -480 0 -480 0 0 330 0 330 540 0 540 0 0 85 0 85 -640
0 -640 0 0 -930z"/>
<path d="M10860 2100 l0 -149 -122 -3 -123 -3 -3 -77 -3 -78 125 0 124 0 4
-472 c4 -469 4 -474 28 -543 20 -57 35 -81 84 -131 52 -51 72 -64 133 -83 62
-20 87 -23 180 -19 115 5 179 22 244 65 l38 25 -31 62 c-17 33 -32 63 -34 65
-2 2 -28 -9 -56 -25 -49 -27 -61 -29 -153 -29 -77 0 -107 4 -133 18 -45 24
-88 88 -101 148 -7 31 -11 213 -11 484 l0 435 215 0 216 0 -3 78 -3 77 -212 3
-213 2 0 150 0 150 -95 0 -95 0 0 -150z"/>
<path d="M2188 1950 c-148 -24 -265 -66 -368 -135 l-69 -46 41 -67 c22 -37 42
-68 43 -70 2 -2 25 13 53 32 111 80 262 126 413 126 266 0 399 -131 399 -396
l0 -52 -302 -5 c-259 -4 -313 -7 -374 -24 -136 -38 -224 -105 -276 -211 -20
-41 -23 -62 -23 -162 0 -102 3 -121 25 -165 53 -107 177 -197 315 -226 33 -7
106 -12 162 -11 193 3 323 51 423 159 l60 64 0 -106 0 -105 91 0 90 0 -4 498
c-4 538 -4 539 -62 657 -52 108 -168 193 -310 230 -74 19 -250 27 -327 15z
m512 -870 c0 -99 -3 -116 -26 -162 -37 -72 -121 -153 -196 -188 -157 -72 -388
-56 -496 35 -114 96 -103 297 21 374 70 43 126 50 420 50 l277 1 0 -110z"/>
<path d="M3683 1949 c-145 -17 -256 -70 -337 -161 -66 -73 -89 -141 -84 -253
3 -76 8 -98 33 -144 68 -124 163 -167 532 -240 207 -42 296 -85 324 -159 13
-34 11 -108 -4 -145 -21 -48 -88 -104 -149 -122 -73 -23 -250 -31 -344 -16
-117 19 -285 83 -336 128 -23 20 -30 14 -73 -64 l-38 -66 24 -18 c69 -53 204
-108 331 -134 91 -20 313 -19 414 0 43 8 111 30 151 49 143 68 213 165 221
305 7 115 -15 179 -82 246 -29 29 -71 62 -94 74 -53 27 -195 65 -336 91 -298
54 -386 108 -386 238 0 65 26 119 77 161 65 54 119 66 288 66 165 0 225 -14
348 -78 31 -16 59 -28 61 -26 8 10 76 137 76 142 0 10 -107 62 -165 80 -131
43 -322 62 -452 46z"/>
<path d="M13947 1949 c-169 -22 -309 -101 -399 -223 l-28 -39 0 132 0 132 -87
-3 -88 -3 -3 -697 -2 -698 95 0 95 0 0 403 c0 495 6 531 107 669 87 120 282
187 464 159 137 -22 230 -84 284 -192 50 -98 55 -148 55 -611 l0 -428 96 0 95
0 -4 473 c-4 526 -6 539 -74 669 -67 129 -207 224 -370 253 -87 16 -136 17
-236 4z"/>
<path d="M15565 1946 c-208 -33 -384 -164 -480 -359 -55 -112 -75 -199 -75
-337 0 -129 19 -222 65 -319 70 -147 171 -249 320 -321 102 -50 203 -70 353
-70 198 0 354 55 472 167 l60 58 -55 60 -54 60 -38 -37 c-197 -188 -557 -196
-767 -16 -88 76 -166 228 -166 324 l0 34 579 0 579 0 6 25 c9 35 -11 199 -34
275 -74 246 -285 423 -544 459 -93 13 -117 13 -221 -3z m317 -185 c78 -32 165
-104 215 -179 43 -64 83 -171 83 -223 l0 -29 -494 0 -493 0 8 48 c36 191 147
327 318 389 59 21 79 23 186 20 96 -3 131 -8 177 -26z"/>
<path d="M4420 1940 c0 -5 139 -320 310 -701 l309 -691 -53 -112 c-59 -122
-117 -195 -180 -228 -64 -34 -181 -31 -263 6 -34 16 -70 37 -79 47 -9 11 -22
19 -28 19 -6 0 -28 -30 -49 -66 l-39 -66 22 -23 c107 -114 391 -140 547 -48
57 33 135 120 180 200 43 78 743 1641 743 1660 0 18 -163 19 -177 1 -5 -7
-126 -275 -268 -596 -142 -320 -259 -581 -260 -580 -1 2 -120 270 -265 596
l-262 592 -94 0 c-54 0 -94 -4 -94 -10z"/>
<path d="M9032 1463 l3 -488 28 -80 c35 -99 75 -162 139 -219 111 -101 247
-141 447 -134 108 4 136 9 196 33 111 45 192 105 253 190 l21 30 1 -122 0
-123 90 0 90 0 0 700 0 701 -92 -3 -93 -3 -6 -440 c-4 -319 -9 -451 -18 -480
-41 -127 -125 -224 -239 -278 -60 -28 -78 -31 -184 -35 -98 -4 -127 -1 -185
17 -83 26 -149 73 -192 137 -64 98 -65 102 -71 614 l-5 465 -93 3 -93 3 3
-488z"/>
<path d="M12630 1250 l0 -700 90 0 90 0 0 700 0 700 -90 0 -90 0 0 -700z"/>
</g>
</svg>
