<svg xmlns="http://www.w3.org/2000/svg" width="2060" height="328" viewBox="0 0 2060 328" version="1.1"><path d="M 1488.667 12.667 C 1488.300 13.033, 1488 68.608, 1488 136.167 L 1488 259 1500.500 259 L 1513 259 1513 135.500 L 1513 12 1501.167 12 C 1494.658 12, 1489.033 12.300, 1488.667 12.667 M 1586.264 13.013 C 1581.818 14.014, 1576.610 18.196, 1574.641 22.345 C 1569.300 33.600, 1577.192 46, 1589.698 46 C 1592.669 46, 1596.373 45.341, 1597.931 44.536 C 1604.788 40.990, 1609.101 31.865, 1606.970 25.410 C 1604.010 16.442, 1594.997 11.046, 1586.264 13.013 M 941.500 25.567 C 911.872 29.619, 889.457 39.978, 870.818 58.235 C 843.633 84.863, 832.408 118.505, 837.031 159.500 C 839.780 183.877, 849.502 204.823, 866.327 222.620 C 877.111 234.025, 885.530 240.484, 898.043 246.946 C 917.338 256.912, 934.750 261, 957.904 261 C 993.267 261, 1020.816 250.591, 1043.877 228.518 C 1067.392 206.009, 1078.427 181.182, 1079.664 148 C 1080.710 119.941, 1074.083 96.489, 1058.875 74.432 C 1052.974 65.873, 1038.829 51.906, 1030.134 46.053 C 1017.171 37.327, 999.703 29.763, 987 27.376 C 979.741 26.012, 947.594 24.734, 941.500 25.567 M 13 142.500 L 13 259 96 259 L 179 259 179 248 L 179 237 109 237 L 39 237 39 194.500 L 39 152 99 152 L 159 152 159 141 L 159 130 99 130 L 39 130 39 89 L 39 48 106.500 48 L 174 48 174 37 L 174 26 93.500 26 L 13 26 13 142.500 M 1356.772 64.750 L 1356.500 83.500 1341.500 84 L 1326.500 84.500 1326.214 94.250 L 1325.928 104 1341.300 104 L 1356.673 104 1357.359 161.250 C 1357.874 204.304, 1358.391 220.144, 1359.445 225.131 C 1363.452 244.100, 1378.172 257.509, 1397.730 260.006 C 1406.097 261.074, 1424.187 259.519, 1431.106 257.137 C 1435.623 255.582, 1443.653 251.362, 1445.939 249.343 C 1446.767 248.611, 1438.601 233, 1437.390 233 C 1436.724 233, 1433.327 234.350, 1429.840 235.999 C 1423.928 238.796, 1422.724 238.997, 1412 238.977 C 1395.634 238.947, 1390.189 235.969, 1384.624 224.008 C 1382.584 219.622, 1382.519 217.936, 1382.205 161.750 L 1381.882 104 1408.691 104.002 L 1435.500 104.004 1435.184 94.002 L 1434.867 84 1408.434 84 L 1382 84 1382 65 L 1382 46 1369.522 46 L 1357.044 46 1356.772 64.750 M 949 48.101 C 935.306 48.995, 924.124 51.712, 914.289 56.535 C 899.022 64.021, 882.088 79.269, 874.091 92.730 C 856.308 122.663, 856.748 164.179, 875.169 194.645 C 879.541 201.874, 890.464 213.666, 898.268 219.580 C 905.908 225.371, 919.805 232.101, 930.500 235.189 C 937.632 237.249, 940.562 237.496, 957.500 237.466 C 972.063 237.439, 978.095 237.030, 983.329 235.712 C 1019.981 226.482, 1048.343 195.833, 1053.083 160.330 C 1053.796 154.992, 1054.052 145.568, 1053.730 136.500 C 1053.160 120.457, 1050.946 110.804, 1045.245 99.500 C 1030.949 71.156, 1001.732 50.764, 972.132 48.471 C 967.934 48.146, 963.600 47.761, 962.500 47.615 C 961.400 47.469, 955.325 47.688, 949 48.101 M 266.005 85.017 C 248.991 88.988, 238.823 93.179, 225.750 101.608 C 222.037 104.001, 219 106.325, 219 106.772 C 219 107.931, 228.981 124, 229.701 124 C 230.031 124, 233.734 121.797, 237.932 119.105 C 253.581 109.066, 268.472 104.774, 287.500 104.819 C 319.790 104.895, 335.026 118.652, 336.709 149.250 L 337.300 160 313.900 160.048 C 275.776 160.126, 258.968 161.277, 249.510 164.459 C 234.439 169.529, 224.151 177.884, 218.295 189.808 C 215.625 195.246, 215.500 196.147, 215.500 210.021 C 215.500 224.393, 215.533 224.610, 218.762 231.167 C 224.627 243.081, 238.506 253.737, 254.560 258.652 C 263.570 261.410, 290.464 261.123, 301.500 258.151 C 313.305 254.971, 321.275 250.525, 330.165 242.163 L 338 234.792 338 246.896 L 338 259 350.034 259 L 362.068 259 361.523 211.750 C 360.581 130.060, 360.481 128.865, 353.376 114.751 C 346.476 101.044, 332.466 90.421, 315.300 85.881 C 303.529 82.768, 277.590 82.313, 266.005 85.017 M 460 83.648 C 443.861 85.820, 430.028 92.083, 420.643 101.468 C 410.041 112.070, 406.359 122.299, 407.495 138 C 408.624 153.615, 415.907 164.103, 430.500 171.132 C 438.438 174.955, 449.028 177.861, 482.396 185.370 C 511.501 191.921, 519.325 197.601, 519.234 212.113 C 519.182 220.447, 517.211 224.802, 511.120 230.039 C 504.575 235.667, 498.005 237.825, 483.464 239.120 C 468.723 240.433, 456.883 239.347, 443.384 235.445 C 435.293 233.105, 419.062 225.930, 414.750 222.786 C 413.459 221.845, 412.548 221.795, 411.279 222.596 C 409.569 223.674, 401 237.379, 401 239.034 C 401 241.878, 417.188 250.382, 431 254.793 C 447.773 260.149, 462.979 261.677, 483.500 260.069 C 504.967 258.386, 519.538 252.952, 530.977 242.361 C 540.471 233.571, 544.789 221.338, 543.749 206.175 C 542.908 193.895, 538.081 185.736, 526.703 177.360 C 519.239 171.865, 508.227 168.318, 482 162.959 C 441.068 154.595, 432.025 149.172, 432.038 133 C 432.046 124.557, 434.279 119.733, 440.963 113.723 C 448.957 106.536, 453.442 105.499, 476.500 105.507 C 498.449 105.515, 502.506 106.310, 518.161 113.674 C 523.584 116.225, 528.175 118.129, 528.364 117.906 C 529.178 116.940, 538 100.236, 538 99.661 C 538 98.579, 524.451 92.137, 516.783 89.573 C 512.777 88.233, 505.450 86.416, 500.500 85.534 C 491.475 83.925, 466.560 82.766, 460 83.648 M 713.311 83.999 C 710.458 84.299, 707.953 84.759, 707.745 85.022 C 707.099 85.839, 696.097 110.260, 669.017 170.982 C 654.672 203.147, 642.613 229.777, 642.218 230.159 C 641.823 230.541, 626.875 197.807, 609 157.416 L 576.500 83.978 564.500 84.239 C 553.483 84.479, 552.526 84.651, 552.814 86.337 C 553.092 87.968, 575.993 139.749, 616.006 229.219 L 629.297 258.939 625.910 266.706 C 618.495 283.713, 608.909 296.776, 600.500 301.333 C 597.087 303.182, 594.886 303.500, 585.500 303.500 C 575.169 303.500, 574.084 303.303, 567.653 300.257 C 563.887 298.473, 559.449 295.873, 557.791 294.477 C 554.021 291.306, 553.359 291.780, 547.364 301.949 L 542.912 309.500 547.205 313.357 C 556.012 321.269, 568.106 325, 584.950 325 C 604.348 325, 613.878 321.124, 626.018 308.299 C 633.256 300.653, 634.957 298.075, 640.998 285.587 C 651.707 263.451, 715.987 120.116, 727.049 93.707 C 728.963 89.138, 729.938 85.566, 729.407 85.074 C 728.156 83.916, 719.564 83.342, 713.311 83.999 M 1678.912 83.782 L 1668.324 84.064 1667.662 123.196 C 1667.298 144.718, 1667 184.079, 1667 210.664 L 1667 259 1679.423 259 L 1691.847 259 1692.242 205.750 C 1692.607 156.615, 1692.789 151.952, 1694.602 145.406 C 1696.798 137.476, 1701.392 129.290, 1707.612 122.222 C 1722.777 104.990, 1757.068 99.699, 1779.838 111.077 C 1791.350 116.829, 1800.507 130.486, 1802.920 145.500 C 1803.582 149.616, 1804.307 174.437, 1804.681 205.750 L 1805.317 259 1817.158 259 L 1829 259 1828.962 219.750 C 1828.916 171.259, 1827.654 138.641, 1825.514 130.592 C 1821.160 114.217, 1808.314 98.639, 1793 91.161 C 1779.679 84.656, 1773.982 83.488, 1756 83.576 C 1743.434 83.638, 1739.033 84.056, 1732.751 85.785 C 1717.497 89.983, 1703.661 98.755, 1694.839 109.819 L 1690.500 115.260 1690 99.380 L 1689.500 83.500 1678.912 83.782 M 1945.831 84.023 C 1934.859 85.875, 1920.955 91.411, 1912.557 97.272 C 1906.834 101.267, 1895.782 112.483, 1891.759 118.381 C 1881.002 134.151, 1876.026 150.950, 1876.026 171.500 C 1876.026 188.647, 1878.467 199.580, 1885.427 213.616 C 1894.249 231.408, 1906.250 242.974, 1925.294 252.041 C 1935.584 256.940, 1942.481 258.716, 1956.569 260.091 C 1968.905 261.296, 1984.480 260.226, 1995.255 257.434 C 2008.136 254.096, 2021.570 246.261, 2030.913 236.637 L 2035.327 232.091 2028.574 224.546 C 2024.859 220.396, 2021.583 217, 2021.294 217 C 2021.004 217, 2018.215 219.363, 2015.095 222.250 C 1994.331 241.468, 1959.079 245.001, 1931.500 230.627 C 1924.284 226.866, 1913.769 216.562, 1909.123 208.699 C 1904.764 201.321, 1901.388 191.957, 1900.487 184.739 L 1899.771 179.013 1972.636 178.757 L 2045.500 178.500 2045.828 173.500 C 2046.269 166.799, 2044.300 151.542, 2041.858 142.732 C 2040.768 138.797, 2037.789 131.510, 2035.238 126.539 C 2031.448 119.154, 2028.852 115.762, 2021.050 108 C 2007.428 94.449, 1993.094 87, 1975 84.068 C 1967.621 82.873, 1952.784 82.850, 1945.831 84.023 M 1128.553 144.750 C 1129.140 202.168, 1129.287 205.857, 1131.218 212 C 1138.987 236.719, 1155.023 252.440, 1178.113 257.975 C 1188.903 260.562, 1214.340 260.835, 1223.540 258.463 C 1236.841 255.034, 1252.841 244.912, 1260.155 235.300 C 1261.913 232.989, 1263.723 231.329, 1264.176 231.609 C 1264.629 231.889, 1265 238.166, 1265 245.559 L 1265 259 1276.500 259 L 1288 259 1288 171.500 L 1288 84 1276.160 84 L 1264.321 84 1263.663 110.250 C 1263.300 124.688, 1262.981 144.600, 1262.953 154.500 C 1262.925 164.400, 1262.527 178.642, 1262.069 186.149 C 1261.286 198.989, 1261.019 200.250, 1257.560 207.442 C 1252.187 218.613, 1243.140 227.843, 1232.297 233.216 C 1224.242 237.207, 1223.372 237.412, 1212.189 237.955 C 1194.737 238.802, 1188.018 237.825, 1178.339 233.032 C 1165.543 226.696, 1157.241 216, 1155.004 202.970 C 1154.375 199.305, 1153.505 172.872, 1152.999 142 C 1152.507 112.025, 1152.081 86.713, 1152.052 85.750 C 1152.005 84.183, 1150.740 84, 1139.966 84 L 1127.932 84 1128.553 144.750 M 1578 171.500 L 1578 259 1590 259 L 1602 259 1602 171.500 L 1602 84 1590 84 L 1578 84 1578 171.500 M 1942.471 106.345 C 1927.473 111.234, 1913.192 123.519, 1906.616 137.191 C 1903.369 143.942, 1900.050 155.032, 1900.015 159.250 C 1900.001 160.898, 1903.566 161, 1961 161 L 2022 161 2022 157.682 C 2022 152.702, 2019.279 144.415, 2014.811 135.788 C 2008.433 123.473, 1995.405 111.854, 1982.769 107.210 C 1976.964 105.077, 1948.254 104.461, 1942.471 106.345 M 286.500 180.050 C 273.300 180.428, 261 181.225, 259.166 181.823 C 254.627 183.301, 247.969 187.308, 245.299 190.167 C 241.529 194.205, 238.686 201.974, 238.589 208.500 C 238.280 229.350, 254.005 241.394, 281.500 241.367 C 300.817 241.348, 311.977 237.072, 324.031 225.073 C 335.138 214.017, 336.406 210.859, 336.816 193.250 L 337.148 179 323.824 179.182 C 316.496 179.281, 299.700 179.672, 286.500 180.050" stroke="none" fill="#fffcfc" fill-rule="evenodd"/><path d="" stroke="none" fill="#fcfcfc" fill-rule="evenodd"/></svg>