<?xml version="1.0" encoding="UTF-8"?>
<!DOCTYPE svg PUBLIC "-//W3C//DTD SVG 1.1//EN" "http://www.w3.org/Graphics/SVG/1.1/DTD/svg11.dtd">
<svg xmlns="http://www.w3.org/2000/svg" version="1.1" width="2060px" height="328px" style="shape-rendering:geometricPrecision; text-rendering:geometricPrecision; image-rendering:optimizeQuality; fill-rule:evenodd; clip-rule:evenodd" xmlns:xlink="http://www.w3.org/1999/xlink">
<g><path style="opacity:0.947" fill="#fefffe" d="M 1487.5,11.5 C 1495.83,11.5 1504.17,11.5 1512.5,11.5C 1512.5,93.8333 1512.5,176.167 1512.5,258.5C 1504.17,258.5 1495.83,258.5 1487.5,258.5C 1487.5,176.167 1487.5,93.8333 1487.5,11.5 Z"/></g>
<g><path style="opacity:0.935" fill="#fefffe" d="M 1587.5,11.5 C 1602.59,12.7039 1608.76,20.7039 1606,35.5C 1599.36,45.9577 1590.53,48.4577 1579.5,43C 1570.17,33.6667 1570.17,24.3333 1579.5,15C 1582.16,13.522 1584.82,12.3554 1587.5,11.5 Z"/></g>
<g><path style="opacity:0.951" fill="#fefffe" d="M 941.5,24.5 C 984.461,19.9201 1020.96,32.9201 1051,63.5C 1080.74,101.648 1087.4,143.648 1071,189.5C 1048.1,236.146 1010.43,260.146 958,261.5C 915.786,261.058 881.786,244.391 856,211.5C 837.653,183.45 831.32,152.783 837,119.5C 845.83,78.674 869.33,49.8407 907.5,33C 918.659,28.8769 929.992,26.0436 941.5,24.5 Z M 942.5,47.5 C 993.256,42.6095 1028.76,63.2762 1049,109.5C 1053.7,127.259 1054.7,145.259 1052,163.5C 1042.43,202.739 1017.93,226.906 978.5,236C 938.38,242.965 905.214,231.131 879,200.5C 858.666,170.14 854.999,137.807 868,103.5C 878.977,79.8558 896.477,63.0225 920.5,53C 927.882,50.8212 935.215,48.9879 942.5,47.5 Z"/></g>
<g><path style="opacity:0.963" fill="#fefffe" d="M 12.5,25.5 C 66.1667,25.5 119.833,25.5 173.5,25.5C 173.5,32.8333 173.5,40.1667 173.5,47.5C 128.5,47.5 83.5,47.5 38.5,47.5C 38.5,74.8333 38.5,102.167 38.5,129.5C 78.5,129.5 118.5,129.5 158.5,129.5C 158.5,136.833 158.5,144.167 158.5,151.5C 118.5,151.5 78.5,151.5 38.5,151.5C 38.5,179.833 38.5,208.167 38.5,236.5C 85.1667,236.5 131.833,236.5 178.5,236.5C 178.5,243.833 178.5,251.167 178.5,258.5C 123.167,258.5 67.8333,258.5 12.5,258.5C 12.5,180.833 12.5,103.167 12.5,25.5 Z"/></g>
<g><path style="opacity:0.955" fill="#fefffe" d="M 1356.5,45.5 C 1364.83,45.5 1373.17,45.5 1381.5,45.5C 1381.5,58.1667 1381.5,70.8333 1381.5,83.5C 1399.17,83.5 1416.83,83.5 1434.5,83.5C 1434.29,90.2105 1434.62,96.8772 1435.5,103.5C 1417.5,103.5 1399.5,103.5 1381.5,103.5C 1381.33,139.168 1381.5,174.835 1382,210.5C 1381.99,219.645 1385.16,227.478 1391.5,234C 1394.13,236.146 1397.13,237.479 1400.5,238C 1413.7,240.348 1426.03,238.182 1437.5,231.5C 1440.63,236.92 1443.63,242.42 1446.5,248C 1434.15,257.348 1420.15,261.515 1404.5,260.5C 1378.77,259.599 1363.27,246.599 1358,221.5C 1356.77,182.176 1356.27,142.843 1356.5,103.5C 1346.17,103.5 1335.83,103.5 1325.5,103.5C 1325.5,96.8333 1325.5,90.1667 1325.5,83.5C 1335.87,83.7333 1346.2,83.4 1356.5,82.5C 1356.5,70.1667 1356.5,57.8333 1356.5,45.5 Z"/></g>
<g><path style="opacity:0.952" fill="#fefffe" d="M 1958.5,81.5 C 2016.97,86.7991 2045.8,118.799 2045,177.5C 1996.57,178.497 1948.07,178.831 1899.5,178.5C 1903.59,211.536 1921.93,231.369 1954.5,238C 1980.15,241.672 2002.32,234.505 2021,216.5C 2026.19,221.024 2030.69,226.191 2034.5,232C 2016.76,251.858 1994.43,261.358 1967.5,260.5C 1932.78,261.063 1905.95,247.063 1887,218.5C 1875.21,195.328 1872.21,170.995 1878,145.5C 1890.56,106.102 1917.39,84.7686 1958.5,81.5 Z M 1946.5,104.5 C 1983.43,99.536 2007.93,114.536 2020,149.5C 2021.11,153.086 2021.61,156.753 2021.5,160.5C 1980.83,160.5 1940.17,160.5 1899.5,160.5C 1902.95,131.394 1918.62,112.728 1946.5,104.5 Z"/></g>
<g><path style="opacity:0.947" fill="#fefffe" d="M 272.5,82.5 C 282.172,82.3335 291.839,82.5002 301.5,83C 329.558,85.0753 348.392,99.242 358,125.5C 359.052,131.117 359.718,136.784 360,142.5C 360.605,181.166 361.105,219.833 361.5,258.5C 353.5,258.5 345.5,258.5 337.5,258.5C 337.666,250.493 337.5,242.493 337,234.5C 321.161,253.454 300.827,262.121 276,260.5C 253.489,261.738 235.156,253.738 221,236.5C 215.791,228.469 213.625,219.636 214.5,210C 213.998,188.006 223.998,173.006 244.5,165C 249.677,163.039 255.01,161.706 260.5,161C 285.817,159.738 311.15,159.238 336.5,159.5C 339.139,123.65 322.639,104.983 287,103.5C 266.231,104.423 247.398,110.923 230.5,123C 229.365,123.749 228.365,123.583 227.5,122.5C 224.365,116.869 221.032,111.369 217.5,106C 233.986,93.7546 252.32,85.9212 272.5,82.5 Z M 328.5,178.5 C 331.167,178.5 333.833,178.5 336.5,178.5C 341.261,206.15 330.928,225.65 305.5,237C 285.676,243.978 266.676,242.311 248.5,232C 235.655,218.783 234.489,204.616 245,189.5C 251.59,183.411 259.423,180.244 268.5,180C 288.671,179.832 308.671,179.332 328.5,178.5 Z"/></g>
<g><path style="opacity:0.947" fill="#fefffe" d="M 461.5,82.5 C 487.512,80.7781 512.178,85.6114 535.5,97C 536.357,97.6891 537.023,98.5224 537.5,99.5C 534.745,106.021 531.245,112.021 527,117.5C 519.775,114.471 512.608,111.304 505.5,108C 487.573,103.793 469.573,103.46 451.5,107C 432.48,114.857 427.314,128.024 436,146.5C 442.414,151.457 449.581,154.957 457.5,157C 479.232,160.812 500.565,166.146 521.5,173C 545.044,189.018 550.211,209.852 537,235.5C 527.074,247.722 514.241,255.222 498.5,258C 469.895,263.201 442.228,260.201 415.5,249C 409.83,246.167 404.497,242.834 399.5,239C 402.793,233.582 405.96,228.082 409,222.5C 410,221.833 411,221.167 412,220.5C 438.885,238.276 468.052,243.443 499.5,236C 517.837,228.837 523.003,216.337 515,198.5C 506.953,192.033 497.787,187.866 487.5,186C 468.515,182.587 449.848,177.92 431.5,172C 414.457,164.428 406.124,151.261 406.5,132.5C 407.568,112.924 416.902,98.7575 434.5,90C 443.328,86.3799 452.328,83.8799 461.5,82.5 Z"/></g>
<g><path style="opacity:0.945" fill="#fefffe" d="M 714.5,82.5 C 719.507,82.7509 724.507,83.0843 729.5,83.5C 729.66,85.1992 729.494,86.8659 729,88.5C 699.156,157.188 668.49,225.522 637,293.5C 619.728,322.045 594.895,331.545 562.5,322C 554.274,319.727 547.607,315.227 542.5,308.5C 545,304.167 547.5,299.833 550,295.5C 551.351,293.981 552.851,292.648 554.5,291.5C 567.737,302.914 582.737,306.081 599.5,301C 604.954,297.88 609.454,293.713 613,288.5C 618.811,279.046 623.978,269.212 628.5,259C 602.339,200.671 576.672,142.171 551.5,83.5C 559.86,83.1688 568.193,83.5021 576.5,84.5C 597.909,132.982 619.576,181.315 641.5,229.5C 663.367,180.934 685.367,132.434 707.5,84C 710.036,83.8138 712.369,83.3138 714.5,82.5 Z"/></g>
<g><path style="opacity:0.955" fill="#fefffe" d="M 1127.5,82.5 C 1135.47,83.3649 1143.47,83.6982 1151.5,83.5C 1152.09,121.503 1152.93,159.503 1154,197.5C 1156.75,219.258 1168.92,232.424 1190.5,237C 1222.51,243.079 1245.34,231.579 1259,202.5C 1259.92,199.899 1260.59,197.232 1261,194.5C 1262.23,157.509 1263.07,120.509 1263.5,83.5C 1271.53,83.6982 1279.53,83.3649 1287.5,82.5C 1287.5,141.167 1287.5,199.833 1287.5,258.5C 1279.83,258.5 1272.17,258.5 1264.5,258.5C 1264.5,249.142 1264,239.809 1263,230.5C 1252.47,245.86 1237.97,255.36 1219.5,259C 1201.11,261.634 1183.11,259.967 1165.5,254C 1145.97,244.447 1133.8,228.947 1129,207.5C 1128.18,165.837 1127.68,124.17 1127.5,82.5 Z"/></g>
<g><path style="opacity:0.955" fill="#fefffe" d="M 1686.5,82.5 C 1687.5,82.5 1688.5,82.5 1689.5,82.5C 1689.33,93.1719 1689.5,103.839 1690,114.5C 1702.94,95.939 1720.77,85.439 1743.5,83C 1769.97,79.1502 1792.81,86.3169 1812,104.5C 1820.6,115.372 1825.6,127.705 1827,141.5C 1828.32,180.488 1828.82,219.488 1828.5,258.5C 1820.5,258.5 1812.5,258.5 1804.5,258.5C 1804.35,222.829 1803.85,187.163 1803,151.5C 1800.04,120.378 1782.87,104.711 1751.5,104.5C 1714.02,105.817 1694.18,125.15 1692,162.5C 1691.5,194.498 1691.33,226.498 1691.5,258.5C 1683.17,258.5 1674.83,258.5 1666.5,258.5C 1666.3,200.162 1666.64,141.829 1667.5,83.5C 1674.02,83.8235 1680.36,83.4902 1686.5,82.5 Z"/></g>
<g><path style="opacity:0.938" fill="#fefffe" d="M 1577.5,83.5 C 1585.5,83.5 1593.5,83.5 1601.5,83.5C 1601.5,141.833 1601.5,200.167 1601.5,258.5C 1593.5,258.5 1585.5,258.5 1577.5,258.5C 1577.5,200.167 1577.5,141.833 1577.5,83.5 Z"/></g>
</svg>
